<?xml version="1.0" encoding="UTF-8"?>
<svg id="Layer_1" xmlns="http://www.w3.org/2000/svg" version="1.1" viewBox="0 0 800 800">
  <!-- Generator: Adobe Illustrator 29.5.0, SVG Export Plug-In . SVG Version: 2.1.0 Build 137)  -->
  <defs>
    <style>
      .st0 {
        fill: none;
        stroke: #9710fa;
        stroke-linecap: round;
        stroke-linejoin: round;
        stroke-width: 66.67px;
      }
    </style>
  </defs>
  <path class="st0" d="M700,700H153.33c-18.67,0-28,0-35.13-3.63-6.27-3.2-11.37-8.29-14.57-14.57-3.63-7.13-3.63-16.46-3.63-35.13V100M700,233.33l-181.14,181.14c-6.6,6.6-9.9,9.9-13.71,11.14-3.35,1.09-6.95,1.09-10.3,0-3.81-1.24-7.11-4.54-13.71-11.14l-62.29-62.29c-6.6-6.6-9.9-9.9-13.71-11.14-3.35-1.09-6.95-1.09-10.3,0-3.81,1.24-7.11,4.54-13.71,11.14l-147.81,147.81M700,233.33h-133.33M700,233.33v133.33"/>
</svg>