<?xml version="1.0" encoding="UTF-8"?>
<svg id="Layer_1" xmlns="http://www.w3.org/2000/svg" version="1.1" viewBox="0 0 800 800">
  <!-- Generator: Adobe Illustrator 29.5.0, SVG Export Plug-In . SVG Version: 2.1.0 Build 137)  -->
  <defs>
    <style>
      .st0 {
        fill: #9710fa;
      }
    </style>
  </defs>
  <path class="st0" d="M789.53,171.69c-7.45-8.07-18.02-12.7-29-12.7h-227.01v-44.05c12.5-4.2,22.37-14.49,25.71-27.87,2.54-10.23.95-20.83-4.48-29.87-5.43-9.04-14.06-15.42-24.29-17.96-38.35-9.56-83.46-14.61-130.46-14.61s-92.12,5.05-130.46,14.61c-10.23,2.55-18.86,8.92-24.29,17.96-5.43,9.04-7.02,19.64-4.47,29.88,2.57,10.27,9,18.93,18.1,24.36,2.44,1.45,4.98,2.62,7.6,3.51v44.03H39.47c-10.98,0-21.55,4.63-29,12.7C3.02,179.76-.75,190.66.12,201.61l11.08,138.45v355.53c0,43.99,35.79,79.77,79.77,79.77h618.05c43.99,0,79.77-35.79,79.77-79.77v-355.53l11.08-138.45c.88-10.95-2.9-21.85-10.35-29.92ZM265.22,80.99c-.92-3.7-.35-7.54,1.62-10.81,1.97-3.27,5.08-5.57,8.78-6.5,36.38-9.07,79.39-13.86,124.37-13.86s87.99,4.79,124.38,13.86c3.7.92,6.82,3.23,8.78,6.49,1.97,3.27,2.54,7.11,1.62,10.8-1.59,6.37-7.28,10.83-13.84,10.83-1.18,0-2.34-.14-3.47-.43-34.17-8.51-74.79-13.01-117.47-13.01s-83.3,4.5-117.53,13.02c-1.09.28-2.2.4-3.3.42-.03,0-.06,0-.09,0-.03,0-.07,0-.1,0-2.5,0-4.96-.67-7.18-2-3.31-1.98-5.65-5.12-6.58-8.83ZM508.33,115.1v43.89h-216.65v-43.89c31.58-7.54,68.94-11.53,108.33-11.53s76.78,3.99,108.33,11.53ZM763.61,695.59c0,30.1-24.48,54.58-54.58,54.58H90.98c-30.1,0-54.58-24.49-54.58-54.58v-221.44c4.42,6.37,9.53,12.3,15.32,17.65,4.16,3.84,8.59,7.29,13.23,10.38v193.41c0,14.35,11.68,26.03,26.03,26.03h618.05c14.35,0,26.03-11.68,26.03-26.03v-193.41c4.64-3.1,9.07-6.55,13.23-10.38,5.8-5.35,10.91-11.28,15.32-17.65v221.44h0ZM225.33,573.83c21.76,0,39.47-17.7,39.47-39.47v-14.27h270.4v14.27c0,21.76,17.7,39.47,39.47,39.47s39.47-17.7,39.47-39.47v-14.27h61.81c11.66,0,23.1-1.9,33.92-5.52v181.03c0,.46-.38.84-.84.84H90.98c-.46,0-.84-.38-.84-.84v-181.03c10.83,3.63,22.26,5.52,33.92,5.52h61.81v14.27c0,21.76,17.7,39.47,39.47,39.47ZM225.33,533.52c5.03,0,9.85-.96,14.27-2.68v3.52c0,7.87-6.4,14.27-14.27,14.27s-14.27-6.4-14.27-14.27v-3.52c4.43,1.73,9.24,2.68,14.27,2.68ZM211.06,494.05v-27.71h28.55v27.71c0,7.87-6.4,14.27-14.27,14.27-7.87,0-14.28-6.4-14.28-14.27ZM574.67,533.52c5.03,0,9.85-.96,14.27-2.68v3.52c0,7.87-6.4,14.27-14.27,14.27s-14.27-6.4-14.27-14.27v-3.52c4.43,1.73,9.24,2.68,14.27,2.68ZM560.39,494.05v-27.71h28.55v27.71c0,7.87-6.4,14.27-14.27,14.27-7.87,0-14.28-6.4-14.28-14.27ZM774.76,199.6l-17.63,220.33c-3.36,42.03-39.03,74.96-81.2,74.96h-61.81v-41.15c0-6.96-5.64-12.6-12.6-12.6h-53.74c-6.96,0-12.6,5.64-12.6,12.6v41.15h-270.39v-41.15c0-6.96-5.64-12.6-12.6-12.6h-53.74c-6.96,0-12.6,5.64-12.6,12.6v41.15h-61.8c-42.17,0-77.83-32.92-81.2-74.96l-17.63-220.33c-.32-4.02,1.01-7.86,3.74-10.82,2.73-2.96,6.46-4.59,10.49-4.59h721.06c4.03,0,7.75,1.63,10.49,4.59,2.73,2.96,4.06,6.81,3.74,10.82Z"/>
</svg>