<?xml version="1.0" encoding="UTF-8"?>
<svg id="Layer_1" xmlns="http://www.w3.org/2000/svg" version="1.1" viewBox="0 0 800 800">
  <!-- Generator: Adobe Illustrator 29.5.0, SVG Export Plug-In . SVG Version: 2.1.0 Build 137)  -->
  <defs>
    <style>
      .st0 {
        fill: none;
        stroke: #9710fa;
        stroke-linecap: round;
        stroke-linejoin: round;
        stroke-width: 66.67px;
      }
    </style>
  </defs>
  <path class="st0" d="M184.26,556.74c37.74,51.95,92.97,88.54,155.52,103.04,62.56,14.5,128.24,5.94,184.99-24.11,56.75-30.05,100.75-79.56,123.92-139.45,23.17-59.89,23.95-126.13,2.2-186.55-21.75-60.42-64.57-110.96-120.6-142.34-56.03-31.38-121.5-41.48-184.38-28.46-62.88,13.02-118.95,48.3-157.91,99.34-38.96,51.05-58.19,114.44-54.16,178.52M133.86,416.74l-50-50M133.86,416.74l50-50"/>
  <path class="st0" d="M400,266.67v133.33l100,100"/>
</svg>