<?xml version="1.0" encoding="UTF-8"?>
<svg id="Layer_1" xmlns="http://www.w3.org/2000/svg" version="1.1" viewBox="0 0 800 800">
  <!-- Generator: Adobe Illustrator 29.5.0, SVG Export Plug-In . SVG Version: 2.1.0 Build 137)  -->
  <defs>
    <style>
      .st0 {
        fill: #9710fa;
      }
    </style>
  </defs>
  <path class="st0" d="M689.47,134.73c18.19-5.28,37.22,5.18,42.51,23.37.9,3.11,1.36,6.33,1.36,9.56l-.03,190.4c-.03,18.96-15.43,34.31-34.39,34.27-7.39-.01-14.59-2.41-20.51-6.84l-54.73-41.17-139.33,185.6c-16.81,22.36-47.75,28.51-71.83,14.27l-5-3.33-111.23-83.57-147.27,196.17c-14,18.67-39.5,23.57-59.23,12.27l-4.8-3.17c-18.41-13.83-23.66-39.19-12.27-59.2l3.17-4.8,169.23-225.4c16.81-22.4,47.78-28.55,71.87-14.27l4.97,3.33,111.2,83.53,117.4-156.33-54.9-41.23c-15.14-11.42-18.15-32.95-6.74-48.09,3.45-4.57,7.99-8.21,13.2-10.58l4.57-1.67,182.83-53.17-.03.03h0Z"/>
</svg>